<svg width="1000" height="360" viewBox="0 0 1000 360" fill="none" xmlns="http://www.w3.org/2000/svg" role="img" aria-labelledby="title desc" text-rendering="geometricPrecision">
  <title id="title">SAP Field Atlas</title>
  <desc id="desc">Crisp repository hero for SAP Field Atlas: agent-ready SAP migration knowledge contracts.</desc>

  <rect width="1000" height="360" rx="24" fill="#07111F"/>
  <rect x="1" y="1" width="998" height="358" rx="23" stroke="#1D4ED8" stroke-width="2" opacity="0.55"/>

  <g opacity="0.22" stroke="#38BDF8" stroke-width="2">
    <path d="M716 66h184"/>
    <path d="M716 124h226"/>
    <path d="M716 182h172"/>
    <path d="M764 42v222"/>
    <path d="M846 42v222"/>
    <path d="M928 42v222"/>
  </g>
  <path d="M704 286C766 234 812 248 864 206C912 168 936 162 960 142" stroke="#38BDF8" stroke-width="4" stroke-linecap="round" opacity="0.82"/>
  <path d="M712 316C766 282 812 288 866 250C910 220 936 214 958 198" stroke="#93C5FD" stroke-width="3" stroke-linecap="round" opacity="0.5"/>

  <g transform="translate(60 56)">
    <rect width="190" height="38" rx="19" fill="#0B1B30" stroke="#38BDF8" stroke-width="2"/>
    <text x="22" y="25" fill="#BAE6FD" font-family="Arial, Helvetica, sans-serif" font-size="15" font-weight="800">PUBLIC SAP ATLAS</text>

    <text x="0" y="116" fill="#F8FAFC" font-family="Arial, Helvetica, sans-serif" font-size="72" font-weight="800">SAP Field Atlas</text>
    <text x="2" y="160" fill="#DCE7F3" font-family="Arial, Helvetica, sans-serif" font-size="25" font-weight="700">Agent-ready migration knowledge contracts</text>

    <g transform="translate(0 218)">
      <rect width="184" height="74" rx="14" fill="#0B1627" stroke="#2563EB" stroke-width="2"/>
      <text x="22" y="28" fill="#7DD3FC" font-family="Arial, Helvetica, sans-serif" font-size="16" font-weight="800">TABLE</text>
      <text x="22" y="57" fill="#FFFFFF" font-family="Arial, Helvetica, sans-serif" font-size="28" font-weight="800">MARA</text>

      <rect x="208" width="206" height="74" rx="14" fill="#0B1627" stroke="#2563EB" stroke-width="2"/>
      <text x="230" y="28" fill="#7DD3FC" font-family="Arial, Helvetica, sans-serif" font-size="16" font-weight="800">FIELD</text>
      <text x="230" y="57" fill="#FFFFFF" font-family="Arial, Helvetica, sans-serif" font-size="28" font-weight="800">MATNR</text>

      <rect x="438" width="296" height="74" rx="14" fill="#0B1627" stroke="#2563EB" stroke-width="2"/>
      <text x="460" y="28" fill="#7DD3FC" font-family="Arial, Helvetica, sans-serif" font-size="16" font-weight="800">TEMPLATE LABEL</text>
      <text x="460" y="57" fill="#FFFFFF" font-family="Arial, Helvetica, sans-serif" font-size="28" font-weight="800">Product Number</text>
    </g>
  </g>
</svg>
