<svg width="1200" height="520" viewBox="0 0 1200 520" fill="none" xmlns="http://www.w3.org/2000/svg" role="img" aria-labelledby="title desc">
  <title id="title">SAP Field Atlas</title>
  <desc id="desc">Agent-ready SAP migration knowledge contracts.</desc>
  <defs>
    <linearGradient id="bg" x1="0" y1="0" x2="1200" y2="520" gradientUnits="userSpaceOnUse">
      <stop offset="0" stop-color="#070B16"/>
      <stop offset="0.62" stop-color="#0B1224"/>
      <stop offset="1" stop-color="#0B3B59"/>
    </linearGradient>
    <radialGradient id="glow" cx="0" cy="0" r="1" gradientUnits="userSpaceOnUse" gradientTransform="translate(930 92) rotate(132) scale(520 430)">
      <stop stop-color="#38BDF8" stop-opacity="0.46"/>
      <stop offset="1" stop-color="#0B1020" stop-opacity="0"/>
    </radialGradient>
    <filter id="softShadow" x="-20%" y="-20%" width="140%" height="140%">
      <feDropShadow dx="0" dy="18" stdDeviation="24" flood-color="#000000" flood-opacity="0.28"/>
    </filter>
  </defs>

  <rect width="1200" height="520" rx="28" fill="url(#bg)"/>
  <rect width="1200" height="520" rx="28" fill="url(#glow)"/>

  <g opacity="0.18" stroke="#60A5FA" stroke-width="1">
    <path d="M760 72h296M760 140h356M760 208h300M760 276h380"/>
    <path d="M828 40v356M920 40v356M1012 40v356"/>
  </g>

  <g opacity="0.7" stroke-linecap="round">
    <path d="M812 384C872 326 920 348 972 298C1024 248 1070 250 1126 204" stroke="#38BDF8" stroke-width="5"/>
    <path d="M828 428C886 384 936 398 988 360C1042 320 1084 322 1130 286" stroke="#93C5FD" stroke-width="3" opacity="0.38"/>
  </g>

  <g transform="translate(76 76)">
    <rect width="212" height="40" rx="20" fill="#0F172A" stroke="#38BDF8" stroke-opacity="0.62"/>
    <text x="24" y="26" fill="#BAE6FD" font-family="Inter,Segoe UI,Arial,sans-serif" font-size="15" font-weight="800" letter-spacing="0.3">PUBLIC SAP ATLAS</text>

    <text x="0" y="132" fill="#F8FAFC" font-family="Inter,Segoe UI,Arial,sans-serif" font-size="86" font-weight="850" letter-spacing="-3.2">SAP Field Atlas</text>
    <text x="2" y="184" fill="#CBD5E1" font-family="Inter,Segoe UI,Arial,sans-serif" font-size="28" font-weight="600">Agent-ready migration knowledge contracts</text>

    <g transform="translate(0 250)" filter="url(#softShadow)">
      <rect width="230" height="92" rx="18" fill="#101827" stroke="#2563EB" stroke-opacity="0.72"/>
      <text x="24" y="34" fill="#7DD3FC" font-family="Inter,Segoe UI,Arial,sans-serif" font-size="15" font-weight="800">TABLE</text>
      <text x="24" y="69" fill="#F8FAFC" font-family="Inter,Segoe UI,Arial,sans-serif" font-size="32" font-weight="850">MARA</text>

      <rect x="258" width="250" height="92" rx="18" fill="#101827" stroke="#2563EB" stroke-opacity="0.72"/>
      <text x="282" y="34" fill="#7DD3FC" font-family="Inter,Segoe UI,Arial,sans-serif" font-size="15" font-weight="800">FIELD</text>
      <text x="282" y="69" fill="#F8FAFC" font-family="Inter,Segoe UI,Arial,sans-serif" font-size="32" font-weight="850">MATNR</text>

      <rect x="536" width="340" height="92" rx="18" fill="#101827" stroke="#2563EB" stroke-opacity="0.72"/>
      <text x="560" y="34" fill="#7DD3FC" font-family="Inter,Segoe UI,Arial,sans-serif" font-size="15" font-weight="800">TEMPLATE LABEL</text>
      <text x="560" y="69" fill="#F8FAFC" font-family="Inter,Segoe UI,Arial,sans-serif" font-size="32" font-weight="850">Product Number</text>
    </g>
  </g>
</svg>
